ffmpeg started on 2025-06-06 at 15:41:18
Report written to "D:\Convert\FFMetrics\reports\ssim_report-6.txt"
Log level: 32
Command line:
ffmpeg -hide_banner -nostdin -i "G:\\\xc0\xed\xe8\xec\xe5\\\xce\xed\xe3\xee\xe8\xed\xe3\xe8\\!_36_\xce\xf1\xe5\xed\xfc_2024\\DreamCast\\\xcf\xe5\xf0\xe5\xf0\xee\xe6\xe4\xe5\xed\xe8\xe5 \xe2 \xe0\xf0\xe8\xf1\xf2\xee\xea\xf0\xe0\xf2\xe0 \xf1\xee \xf1\xef\xee\xf1\xee\xe1\xed\xee\xf1\xf2\xfc\xfe \xe0\xed\xe0\xeb\xe8\xe7\xe0\\\xd2\xc2-1\\[DC] Tensei Kizoku - Kantei Skill de Nariagaru - 02_Telegram_HEVC.mkv" -i "G:\\\xc0\xed\xe8\xec\xe5\\\xce\xed\xe3\xee\xe8\xed\xe3\xe8\\!_36_\xce\xf1\xe5\xed\xfc_2024\\DreamCast\\\xcf\xe5\xf0\xe5\xf0\xee\xe6\xe4\xe5\xed\xe8\xe5 \xe2 \xe0\xf0\xe8\xf1\xf2\xee\xea\xf0\xe0\xf2\xe0 \xf1\xee \xf1\xef\xee\xf1\xee\xe1\xed\xee\xf1\xf2\xfc\xfe \xe0\xed\xe0\xeb\xe8\xe7\xe0\\\xd2\xc2-1\\[DC] Tensei Kizoku - Kantei Skill de Nariagaru - 02_Telegram.mp4" -lavfi "[0:v]settb=AVTB,setpts=PTS-STARTPTS,format=pix_fmts=yuv420p10,fps=24000/1001,scale=1920:1080:flags=bicubic[main];[1:v]settb=AVTB,setpts=PTS-STARTPTS,format=pix_fmts=yuv420p,fps=24000/1001,scale=1920:1080:flags=bicubic[ref];[main][ref]ssim=eof_action=endall:stats_file='D\\:/Convert/FFMetrics/logs/ssim_logfile-6.txt'" -f null -
Input #0, matroska,webm, from 'G:\Аниме\Онгоинги\!_36_Осень_2024\DreamCast\Перерождение в аристократа со способностью анализа\ТВ-1\[DC] Tensei Kizoku - Kantei Skill de Nariagaru - 02_Telegram_HEVC.mkv':
  Metadata:
    COMPATIBLE_BRANDS: isomiso2avc1mp41
    MAJOR_BRAND     : isom
    MINOR_VERSION   : 512
    ENCODER         : Lavf61.7.100
  Duration: 00:23:47.12, start: -0.021000, bitrate: 1392 kb/s
  Stream #0:0: Video: hevc (Main 10), yuv420p10le(tv, bt709, progressive), 1920x1080 [SAR 1:1 DAR 16:9], 23.98 fps, 23.98 tbr, 1k tbn (default)
      Metadata:
        HANDLER_NAME    : VideoHandler
        VENDOR_ID       : [0][0][0][0]
        ENCODER         : Lavc61.19.100 libx265
        BPS             : 1195572
        DURATION        : 00:23:46.549708333
        NUMBER_OF_FRAMES: 34203
        NUMBER_OF_BYTES : 213192906
        _STATISTICS_WRITING_APP: mkvpropedit v66.0.0 ('Josie') 64-bit
        _STATISTICS_WRITING_DATE_UTC: 2025-06-02 06:55:45
        _STATISTICS_TAGS: BPS DURATION NUMBER_OF_FRAMES NUMBER_OF_BYTES
  Stream #0:1: Audio: aac (LC), 48000 Hz, stereo, fltp (default)
      Metadata:
        HANDLER_NAME    : SoundHandler
        VENDOR_ID       : [0][0][0][0]
        ENCODER         : Lavc61.19.100 aac
        BPS             : 193670
        DURATION        : 00:23:47.114000000
        NUMBER_OF_FRAMES: 66897
        NUMBER_OF_BYTES : 34548734
        _STATISTICS_WRITING_APP: mkvpropedit v66.0.0 ('Josie') 64-bit
        _STATISTICS_WRITING_DATE_UTC: 2025-06-02 06:55:45
        _STATISTICS_TAGS: BPS DURATION NUMBER_OF_FRAMES NUMBER_OF_BYTES
Input #1, mov,mp4,m4a,3gp,3g2,mj2, from 'G:\Аниме\Онгоинги\!_36_Осень_2024\DreamCast\Перерождение в аристократа со способностью анализа\ТВ-1\[DC] Tensei Kizoku - Kantei Skill de Nariagaru - 02_Telegram.mp4':
  Metadata:
    major_brand     : isom
    minor_version   : 512
    compatible_brands: isomiso2avc1mp41
    encoder         : Lavf60.16.100
  Duration: 00:23:47.05, start: 0.000000, bitrate: 3740 kb/s
  Stream #1:0[0x1](und): Video: h264 (High) (avc1 / 0x31637661), yuv420p(tv, bt709, progressive), 1920x1080 [SAR 1:1 DAR 16:9], 3593 kb/s, 23.98 fps, 23.98 tbr, 24k tbn (default)
      Metadata:
        handler_name    : VideoHandler
        vendor_id       : [0][0][0][0]
        encoder         : Lavc60.31.102 h264_qsv
  Stream #1:1[0x2](und): Audio: aac (HE-AACv2) (mp4a / 0x6134706D), 48000 Hz, stereo, fltp, 144 kb/s (default)
      Metadata:
        handler_name    : SoundHandler
        vendor_id       : [0][0][0][0]
Stream mapping:
  Stream #0:0 (hevc) -> settb:default
  Stream #1:0 (h264) -> settb:default
  ssim:default -> Stream #0:0 (wrapped_avframe)
  Stream #0:1 -> #0:1 (aac (native) -> pcm_s16le (native))
Output #0, null, to 'pipe:':
  Metadata:
    COMPATIBLE_BRANDS: isomiso2avc1mp41
    MAJOR_BRAND     : isom
    MINOR_VERSION   : 512
    encoder         : Lavf61.7.100
  Stream #0:0: Video: wrapped_avframe, yuv420p10le(tv, bt709, progressive), 1920x1080 [SAR 1:1 DAR 16:9], q=2-31, 200 kb/s, 23.98 fps, 23.98 tbn
      Metadata:
        encoder         : Lavc61.19.100 wrapped_avframe
  Stream #0:1: Audio: pcm_s16le, 48000 Hz, stereo, s16, 1536 kb/s (default)
      Metadata:
        HANDLER_NAME    : SoundHandler
        VENDOR_ID       : [0][0][0][0]
        _STATISTICS_TAGS: BPS DURATION NUMBER_OF_FRAMES NUMBER_OF_BYTES
        BPS             : 193670
        DURATION        : 00:23:47.114000000
        NUMBER_OF_FRAMES: 66897
        NUMBER_OF_BYTES : 34548734
        _STATISTICS_WRITING_APP: mkvpropedit v66.0.0 ('Josie') 64-bit
        _STATISTICS_WRITING_DATE_UTC: 2025-06-02 06:55:45
        encoder         : Lavc61.19.100 pcm_s16le
frame=  162 fps=0.0 q=-0.0 size=N/A time=00:00:06.75 bitrate=N/A speed=  13x    frame=  278 fps=267 q=-0.0 size=N/A time=00:00:11.59 bitrate=N/A speed=11.1x    frame=  406 fps=260 q=-0.0 size=N/A time=00:00:16.93 bitrate=N/A speed=10.9x    frame=  518 fps=250 q=-0.0 size=N/A time=00:00:21.60 bitrate=N/A speed=10.4x    frame=  654 fps=252 q=-0.0 size=N/A time=00:00:27.27 bitrate=N/A speed=10.5x    frame=  865 fps=279 q=-0.0 size=N/A time=00:00:36.07 bitrate=N/A speed=11.6x    frame= 1031 fps=286 q=-0.0 size=N/A time=00:00:43.00 bitrate=N/A speed=11.9x    frame= 1212 fps=293 q=-0.0 size=N/A time=00:00:50.55 bitrate=N/A speed=12.2x    frame= 1399 fps=302 q=-0.0 size=N/A time=00:00:58.34 bitrate=N/A speed=12.6x    frame= 1591 fps=308 q=-0.0 size=N/A time=00:01:06.35 bitrate=N/A speed=12.8x    frame= 1746 fps=308 q=-0.0 size=N/A time=00:01:12.82 bitrate=N/A speed=12.8x    frame= 1936 fps=312 q=-0.0 size=N/A time=00:01:20.74 bitrate=N/A speed=  13x    frame= 2135 fps=318 q=-0.0 size=N/A time=00:01:29.04 bitrate=N/A speed=13.3x    frame= 2300 fps=319 q=-0.0 size=N/A time=00:01:35.92 bitrate=N/A speed=13.3x    frame= 2500 fps=323 q=-0.0 size=N/A time=00:01:44.27 bitrate=N/A speed=13.5x    frame= 2718 fps=329 q=-0.0 size=N/A time=00:01:53.36 bitrate=N/A speed=13.7x    frame= 2925 fps=333 q=-0.0 size=N/A time=00:02:01.99 bitrate=N/A speed=13.9x    frame= 3150 fps=339 q=-0.0 size=N/A time=00:02:11.38 bitrate=N/A speed=14.1x    frame= 3379 fps=345 q=-0.0 size=N/A time=00:02:20.93 bitrate=N/A speed=14.4x    frame= 3627 fps=351 q=-0.0 size=N/A time=00:02:31.27 bitrate=N/A speed=14.7x    frame= 3843 fps=355 q=-0.0 size=N/A time=00:02:40.28 bitrate=N/A speed=14.8x    frame= 4102 fps=361 q=-0.0 size=N/A time=00:02:51.08 bitrate=N/A speed=15.1x    frame= 4342 fps=366 q=-0.0 size=N/A time=00:03:01.09 bitrate=N/A speed=15.3x    frame= 4599 fps=371 q=-0.0 size=N/A time=00:03:11.81 bitrate=N/A speed=15.5x    frame= 4855 fps=376 q=-0.0 size=N/A time=00:03:22.49 bitrate=N/A speed=15.7x    frame= 5110 fps=381 q=-0.0 size=N/A time=00:03:33.12 bitrate=N/A speed=15.9x    frame= 5378 fps=386 q=-0.0 size=N/A time=00:03:44.30 bitrate=N/A speed=16.1x    frame= 5640 fps=391 q=-0.0 size=N/A time=00:03:55.23 bitrate=N/A speed=16.3x    frame= 5920 fps=396 q=-0.0 size=N/A time=00:04:06.91 bitrate=N/A speed=16.5x    frame= 6134 fps=397 q=-0.0 size=N/A time=00:04:15.83 bitrate=N/A speed=16.5x    frame= 6316 fps=395 q=-0.0 size=N/A time=00:04:23.42 bitrate=N/A speed=16.5x    frame= 6514 fps=395 q=-0.0 size=N/A time=00:04:31.68 bitrate=N/A speed=16.5x    frame= 6759 fps=397 q=-0.0 size=N/A time=00:04:41.90 bitrate=N/A speed=16.6x    frame= 7017 fps=400 q=-0.0 size=N/A time=00:04:52.66 bitrate=N/A speed=16.7x    frame= 7267 fps=402 q=-0.0 size=N/A time=00:05:03.09 bitrate=N/A speed=16.8x    frame= 7480 fps=403 q=-0.0 size=N/A time=00:05:11.97 bitrate=N/A speed=16.8x    frame= 7711 fps=404 q=-0.0 size=N/A time=00:05:21.61 bitrate=N/A speed=16.8x    frame= 7977 fps=407 q=-0.0 size=N/A time=00:05:32.70 bitrate=N/A speed=  17x    frame= 8243 fps=410 q=-0.0 size=N/A time=00:05:43.80 bitrate=N/A speed=17.1x    frame= 8496 fps=411 q=-0.0 size=N/A time=00:05:54.35 bitrate=N/A speed=17.2x    frame= 8748 fps=413 q=-0.0 size=N/A time=00:06:04.86 bitrate=N/A speed=17.2x    frame= 9004 fps=415 q=-0.0 size=N/A time=00:06:15.54 bitrate=N/A speed=17.3x    frame= 9186 fps=414 q=-0.0 size=N/A time=00:06:23.13 bitrate=N/A speed=17.3x    frame= 9422 fps=415 q=-0.0 size=N/A time=00:06:32.97 bitrate=N/A speed=17.3x    frame= 9694 fps=417 q=-0.0 size=N/A time=00:06:44.32 bitrate=N/A speed=17.4x    frame= 9941 fps=419 q=-0.0 size=N/A time=00:06:54.62 bitrate=N/A speed=17.5x    frame=10197 fps=420 q=-0.0 size=N/A time=00:07:05.29 bitrate=N/A speed=17.5x    frame=10410 fps=420 q=-0.0 size=N/A time=00:07:14.18 bitrate=N/A speed=17.5x    frame=10658 fps=422 q=-0.0 size=N/A time=00:07:24.52 bitrate=N/A speed=17.6x    frame=10920 fps=423 q=-0.0 size=N/A time=00:07:35.45 bitrate=N/A speed=17.6x    frame=11116 fps=422 q=-0.0 size=N/A time=00:07:43.62 bitrate=N/A speed=17.6x    frame=11378 fps=424 q=-0.0 size=N/A time=00:07:54.55 bitrate=N/A speed=17.7x    frame=11598 fps=424 q=-0.0 size=N/A time=00:08:03.73 bitrate=N/A speed=17.7x    frame=11810 fps=424 q=-0.0 size=N/A time=00:08:12.57 bitrate=N/A speed=17.7x    frame=12008 fps=423 q=-0.0 size=N/A time=00:08:20.83 bitrate=N/A speed=17.6x    frame=12169 fps=421 q=-0.0 size=N/A time=00:08:27.54 bitrate=N/A speed=17.6x    frame=12355 fps=420 q=-0.0 size=N/A time=00:08:35.30 bitrate=N/A speed=17.5x    frame=12556 fps=419 q=-0.0 size=N/A time=00:08:43.68 bitrate=N/A speed=17.5x    frame=12766 fps=419 q=-0.0 size=N/A time=00:08:52.44 bitrate=N/A speed=17.5x    frame=12983 fps=419 q=-0.0 size=N/A time=00:09:01.49 bitrate=N/A speed=17.5x    frame=13179 fps=418 q=-0.0 size=N/A time=00:09:09.67 bitrate=N/A speed=17.5x    frame=13398 fps=419 q=-0.0 size=N/A time=00:09:18.80 bitrate=N/A speed=17.5x    frame=13631 fps=419 q=-0.0 size=N/A time=00:09:28.52 bitrate=N/A speed=17.5x    frame=13852 fps=419 q=-0.0 size=N/A time=00:09:37.74 bitrate=N/A speed=17.5x    frame=14035 fps=418 q=-0.0 size=N/A time=00:09:45.37 bitrate=N/A speed=17.4x    frame=14248 fps=418 q=-0.0 size=N/A time=00:09:54.26 bitrate=N/A speed=17.4x    frame=14460 fps=418 q=-0.0 size=N/A time=00:10:03.10 bitrate=N/A speed=17.4x    frame=14687 fps=418 q=-0.0 size=N/A time=00:10:12.57 bitrate=N/A speed=17.4x    frame=14908 fps=419 q=-0.0 size=N/A time=00:10:21.78 bitrate=N/A speed=17.5x    frame=15139 fps=419 q=-0.0 size=N/A time=00:10:31.42 bitrate=N/A speed=17.5x    frame=15391 fps=420 q=-0.0 size=N/A time=00:10:41.93 bitrate=N/A speed=17.5x    frame=15647 fps=421 q=-0.0 size=N/A time=00:10:52.61 bitrate=N/A speed=17.6x    frame=15923 fps=423 q=-0.0 size=N/A time=00:11:04.12 bitrate=N/A speed=17.6x    frame=16196 fps=424 q=-0.0 size=N/A time=00:11:15.50 bitrate=N/A speed=17.7x    frame=16459 fps=425 q=-0.0 size=N/A time=00:11:26.47 bitrate=N/A speed=17.7x    frame=16706 fps=426 q=-0.0 size=N/A time=00:11:36.77 bitrate=N/A speed=17.8x    frame=16969 fps=427 q=-0.0 size=N/A time=00:11:47.74 bitrate=N/A speed=17.8x    frame=17227 fps=428 q=-0.0 size=N/A time=00:11:58.50 bitrate=N/A speed=17.8x    frame=17457 fps=428 q=-0.0 size=N/A time=00:12:08.10 bitrate=N/A speed=17.9x    frame=17732 fps=429 q=-0.0 size=N/A time=00:12:19.57 bitrate=N/A speed=17.9x    frame=17880 fps=428 q=-0.0 size=N/A time=00:12:25.74 bitrate=N/A speed=17.8x    frame=18120 fps=428 q=-0.0 size=N/A time=00:12:35.75 bitrate=N/A speed=17.9x    frame=18374 fps=429 q=-0.0 size=N/A time=00:12:46.34 bitrate=N/A speed=17.9x    frame=18633 fps=430 q=-0.0 size=N/A time=00:12:57.15 bitrate=N/A speed=17.9x    frame=18889 fps=431 q=-0.0 size=N/A time=00:13:07.82 bitrate=N/A speed=  18x    frame=19161 fps=432 q=-0.0 size=N/A time=00:13:19.17 bitrate=N/A speed=  18x    frame=19382 fps=432 q=-0.0 size=N/A time=00:13:28.39 bitrate=N/A speed=  18x    frame=19628 fps=432 q=-0.0 size=N/A time=00:13:38.65 bitrate=N/A speed=  18x    frame=19876 fps=433 q=-0.0 size=N/A time=00:13:48.99 bitrate=N/A speed=  18x    frame=20059 fps=432 q=-0.0 size=N/A time=00:13:56.62 bitrate=N/A speed=  18x    frame=20262 fps=431 q=-0.0 size=N/A time=00:14:05.09 bitrate=N/A speed=  18x    frame=20473 fps=431 q=-0.0 size=N/A time=00:14:13.89 bitrate=N/A speed=  18x    frame=20732 fps=432 q=-0.0 size=N/A time=00:14:24.69 bitrate=N/A speed=  18x    frame=20933 fps=432 q=-0.0 size=N/A time=00:14:33.08 bitrate=N/A speed=  18x    frame=21118 fps=431 q=-0.0 size=N/A time=00:14:40.79 bitrate=N/A speed=  18x    frame=21322 fps=430 q=-0.0 size=N/A time=00:14:49.30 bitrate=N/A speed=  18x    frame=21550 fps=431 q=-0.0 size=N/A time=00:14:58.81 bitrate=N/A speed=  18x    frame=21819 fps=431 q=-0.0 size=N/A time=00:15:10.03 bitrate=N/A speed=  18x    frame=22058 fps=432 q=-0.0 size=N/A time=00:15:20.00 bitrate=N/A speed=  18x    frame=22277 fps=432 q=-0.0 size=N/A time=00:15:29.13 bitrate=N/A speed=  18x    frame=22504 fps=432 q=-0.0 size=N/A time=00:15:38.60 bitrate=N/A speed=  18x    frame=22724 fps=432 q=-0.0 size=N/A time=00:15:47.78 bitrate=N/A speed=  18x    frame=22943 fps=432 q=-0.0 size=N/A time=00:15:56.91 bitrate=N/A speed=  18x    frame=23171 fps=432 q=-0.0 size=N/A time=00:16:06.42 bitrate=N/A speed=  18x    frame=23416 fps=432 q=-0.0 size=N/A time=00:16:16.64 bitrate=N/A speed=  18x    frame=23660 fps=432 q=-0.0 size=N/A time=00:16:26.81 bitrate=N/A speed=  18x    frame=23911 fps=433 q=-0.0 size=N/A time=00:16:37.28 bitrate=N/A speed=18.1x    frame=24180 fps=434 q=-0.0 size=N/A time=00:16:48.50 bitrate=N/A speed=18.1x    frame=24441 fps=434 q=-0.0 size=N/A time=00:16:59.39 bitrate=N/A speed=18.1x    frame=24726 fps=436 q=-0.0 size=N/A time=00:17:11.28 bitrate=N/A speed=18.2x    frame=24992 fps=436 q=-0.0 size=N/A time=00:17:22.37 bitrate=N/A speed=18.2x    frame=25271 fps=437 q=-0.0 size=N/A time=00:17:34.01 bitrate=N/A speed=18.2x    frame=25523 fps=438 q=-0.0 size=N/A time=00:17:44.52 bitrate=N/A speed=18.3x    frame=25765 fps=438 q=-0.0 size=N/A time=00:17:54.61 bitrate=N/A speed=18.3x    frame=26043 fps=439 q=-0.0 size=N/A time=00:18:06.21 bitrate=N/A speed=18.3x    frame=26295 fps=439 q=-0.0 size=N/A time=00:18:16.72 bitrate=N/A speed=18.3x    frame=26550 fps=440 q=-0.0 size=N/A time=00:18:27.35 bitrate=N/A speed=18.3x    frame=26820 fps=440 q=-0.0 size=N/A time=00:18:38.61 bitrate=N/A speed=18.4x    frame=27090 fps=441 q=-0.0 size=N/A time=00:18:49.87 bitrate=N/A speed=18.4x    frame=27348 fps=442 q=-0.0 size=N/A time=00:19:00.63 bitrate=N/A speed=18.4x    frame=27609 fps=442 q=-0.0 size=N/A time=00:19:11.52 bitrate=N/A speed=18.4x    frame=27881 fps=443 q=-0.0 size=N/A time=00:19:22.87 bitrate=N/A speed=18.5x    frame=28141 fps=443 q=-0.0 size=N/A time=00:19:33.71 bitrate=N/A speed=18.5x    frame=28395 fps=444 q=-0.0 size=N/A time=00:19:44.30 bitrate=N/A speed=18.5x    frame=28671 fps=444 q=-0.0 size=N/A time=00:19:55.81 bitrate=N/A speed=18.5x    frame=28944 fps=445 q=-0.0 size=N/A time=00:20:07.20 bitrate=N/A speed=18.6x    frame=29212 fps=446 q=-0.0 size=N/A time=00:20:18.38 bitrate=N/A speed=18.6x    frame=29441 fps=446 q=-0.0 size=N/A time=00:20:27.93 bitrate=N/A speed=18.6x    frame=29684 fps=446 q=-0.0 size=N/A time=00:20:38.07 bitrate=N/A speed=18.6x    frame=29964 fps=447 q=-0.0 size=N/A time=00:20:49.74 bitrate=N/A speed=18.6x    frame=30237 fps=447 q=-0.0 size=N/A time=00:21:01.13 bitrate=N/A speed=18.7x    frame=30516 fps=448 q=-0.0 size=N/A time=00:21:12.77 bitrate=N/A speed=18.7x    frame=30790 fps=449 q=-0.0 size=N/A time=00:21:24.19 bitrate=N/A speed=18.7x    frame=31072 fps=449 q=-0.0 size=N/A time=00:21:35.96 bitrate=N/A speed=18.7x    frame=31336 fps=450 q=-0.0 size=N/A time=00:21:46.97 bitrate=N/A speed=18.8x    frame=31575 fps=450 q=-0.0 size=N/A time=00:21:56.94 bitrate=N/A speed=18.8x    frame=31778 fps=449 q=-0.0 size=N/A time=00:22:05.40 bitrate=N/A speed=18.7x    frame=31947 fps=449 q=-0.0 size=N/A time=00:22:12.45 bitrate=N/A speed=18.7x    frame=32150 fps=448 q=-0.0 size=N/A time=00:22:20.92 bitrate=N/A speed=18.7x    frame=32341 fps=448 q=-0.0 size=N/A time=00:22:28.88 bitrate=N/A speed=18.7x    frame=32536 fps=447 q=-0.0 size=N/A time=00:22:37.02 bitrate=N/A speed=18.6x    frame=32718 fps=446 q=-0.0 size=N/A time=00:22:44.61 bitrate=N/A speed=18.6x    frame=32920 fps=446 q=-0.0 size=N/A time=00:22:53.03 bitrate=N/A speed=18.6x    frame=33122 fps=446 q=-0.0 size=N/A time=00:23:01.46 bitrate=N/A speed=18.6x    frame=33297 fps=445 q=-0.0 size=N/A time=00:23:08.76 bitrate=N/A speed=18.6x    frame=33522 fps=445 q=-0.0 size=N/A time=00:23:18.14 bitrate=N/A speed=18.6x    frame=33711 fps=444 q=-0.0 size=N/A time=00:23:26.02 bitrate=N/A speed=18.5x    frame=33923 fps=444 q=-0.0 size=N/A time=00:23:34.87 bitrate=N/A speed=18.5x    frame=34146 fps=444 q=-0.0 size=N/A time=00:23:44.17 bitrate=N/A speed=18.5x    [Parsed_ssim_10 @ 000001b9b54ca440] SSIM Y:0.991523 (20.717801) U:0.993462 (21.845711) V:0.993474 (21.853208) All:0.992172 (21.063261)
[out#0/null @ 000001b9b50050c0] video:14697KiB audio:267588KiB subtitle:0KiB other streams:0KiB global headers:0KiB muxing overhead: unknown
frame=34203 fps=444 q=-0.0 Lsize=N/A time=00:23:46.55 bitrate=N/A speed=18.5x    
